<svg width="568" height="192" viewBox="0 0 568 192" fill="none" xmlns="http://www.w3.org/2000/svg">
<path d="M96.1524 92.4246C96.1524 91.0164 96.6421 89.823 97.6202 88.8456C98.5983 87.8681 99.7913 87.3788 101.202 87.3788C102.611 87.3788 103.809 87.8681 104.783 88.8456C105.761 89.823 106.25 91.0164 106.25 92.4246V119.438C106.25 121.715 106.682 123.859 107.552 125.869C108.422 127.877 109.59 129.636 111.053 131.156C112.52 132.676 114.257 133.87 116.267 134.735C118.274 135.606 120.419 136.036 122.699 136.036C124.979 136.036 127.121 135.606 129.13 134.735C131.137 133.87 132.901 132.676 134.422 131.156C135.944 129.636 137.136 127.877 138.004 125.869C138.874 123.859 139.309 121.715 139.309 119.438V72.2467C139.309 70.8386 139.799 69.6412 140.773 68.6678C141.751 67.6903 142.945 67.2009 144.358 67.2009C145.767 67.2009 146.962 67.6903 147.94 68.6678C148.918 69.6412 149.403 70.8386 149.403 72.2467V119.438C149.403 123.129 148.699 126.6 147.288 129.856C145.875 133.107 143.972 135.932 141.589 138.314C139.197 140.705 136.379 142.602 133.12 144.011C129.861 145.423 126.388 146.127 122.699 146.127C118.139 146.127 114.01 145.127 110.321 143.117C106.627 141.109 103.536 138.426 101.04 135.063C98.6517 138.426 95.6093 141.109 91.9198 143.117C88.2262 145.127 84.1017 146.127 79.5421 146.127C75.8525 146.127 72.3792 145.423 69.1206 144.011C65.8621 142.602 63.0399 140.705 60.6513 138.314C58.2641 135.932 56.392 133.107 55.0376 129.856C53.6779 126.6 53 123.129 53 119.438V72.2467C53 70.8386 53.4884 69.6412 54.4665 68.6678C55.4419 67.6903 56.6348 67.2009 58.048 67.2009C59.4584 67.2009 60.6513 67.6903 61.6308 68.6678C62.6089 69.6412 63.0972 70.8386 63.0972 72.2467V119.438C63.0972 121.715 63.5282 123.859 64.3996 125.869C65.2656 127.877 66.4332 129.636 67.8997 131.156C69.3675 132.676 71.1008 133.87 73.1104 134.735C75.1173 135.606 77.2616 136.036 79.5421 136.036C83.9936 136.036 87.8219 134.466 91.0231 131.317C94.2269 128.173 95.9363 124.214 96.1524 119.438V92.4246Z" fill="#080A0A"/>
<path d="M196.63 77.6154C193.045 77.6154 189.652 78.2422 186.452 79.4863C183.248 80.7371 180.371 82.4185 177.821 84.5307C175.268 86.6483 173.149 89.1685 171.471 92.1007C169.784 95.0303 168.621 98.1786 167.965 101.538H225.453C224.802 98.1786 223.605 95.0303 221.872 92.1007C220.13 89.1685 217.986 86.6483 215.436 84.5307C212.886 82.4185 210.006 80.7371 206.805 79.4863C203.605 78.2422 200.212 77.6154 196.63 77.6154ZM167.804 111.629C168.347 115.1 169.487 118.33 171.224 121.311C172.961 124.294 175.106 126.873 177.656 129.04C180.206 131.211 183.113 132.919 186.37 134.166C189.625 135.413 193.045 136.037 196.63 136.037C200.643 136.037 204.391 135.305 207.865 133.843C211.338 132.376 214.431 130.34 217.147 127.739C218.125 126.761 219.318 126.273 220.732 126.273C222.141 126.273 223.335 126.761 224.313 127.739C225.292 128.716 225.776 129.909 225.776 131.318C225.776 132.731 225.292 133.923 224.313 134.897C220.732 138.916 216.684 141.763 212.181 143.441C207.675 145.127 202.492 145.966 196.63 145.966C191.201 145.966 186.125 144.988 181.403 143.037C176.682 141.081 172.526 138.373 168.943 134.897C165.362 131.43 162.54 127.308 160.476 122.531C158.415 117.759 157.382 112.552 157.382 106.906C157.382 101.484 158.385 96.4118 160.394 91.694C162.405 86.9749 165.17 82.8532 168.702 79.3236C172.225 75.7993 176.408 72.9777 181.241 70.8615C186.07 68.748 191.308 67.5825 196.953 67.3625C202.164 67.3625 207.075 68.3986 211.693 70.4575C216.306 72.5203 220.404 75.2832 223.985 78.7542C227.571 82.2292 230.421 86.2976 232.536 90.962C234.654 95.6264 235.82 100.619 236.036 105.933C236.256 107.777 235.793 109.185 234.654 110.162C233.514 111.14 232.293 111.629 230.991 111.629H167.804Z" fill="#080A0A"/>
<path d="M286.845 92.4246C286.845 91.0164 287.335 89.823 288.313 88.8456C289.291 87.8681 290.484 87.3788 291.894 87.3788C293.303 87.3788 294.502 87.8681 295.476 88.8456C296.454 89.823 296.942 91.0164 296.942 92.4246V119.438C296.942 121.715 297.375 123.859 298.245 125.869C299.115 127.877 300.282 129.636 301.746 131.156C303.213 132.676 304.95 133.87 306.96 134.735C308.966 135.606 311.112 136.036 313.391 136.036C315.672 136.036 317.813 135.606 319.823 134.735C321.83 133.87 323.594 132.676 325.115 131.156C326.636 129.636 327.829 127.877 328.697 125.869C329.567 123.859 330.002 121.715 330.002 119.438V72.2467C330.002 70.8386 330.491 69.6412 331.465 68.6678C332.443 67.6903 333.638 67.2009 335.051 67.2009C336.46 67.2009 337.654 67.6903 338.632 68.6678C339.61 69.6412 340.096 70.8386 340.096 72.2467V119.438C340.096 123.129 339.392 126.6 337.981 129.856C336.568 133.107 334.665 135.932 332.282 138.314C329.889 140.705 327.071 142.602 323.813 144.011C320.554 145.423 317.081 146.127 313.391 146.127C308.832 146.127 304.703 145.127 301.014 143.117C297.32 141.109 294.228 138.426 291.733 135.063C289.344 138.426 286.302 141.109 282.612 143.117C278.919 145.127 274.794 146.127 270.235 146.127C266.545 146.127 263.072 145.423 259.813 144.011C256.555 142.602 253.733 140.705 251.344 138.314C248.957 135.932 247.085 133.107 245.729 129.856C244.371 126.6 243.693 123.129 243.693 119.438V72.2467C243.693 70.8386 244.181 69.6412 245.159 68.6678C246.135 67.6903 247.328 67.2009 248.741 67.2009C250.151 67.2009 251.344 67.6903 252.323 68.6678C253.302 69.6412 253.79 70.8386 253.79 72.2467V119.438C253.79 121.715 254.221 123.859 255.092 125.869C255.958 127.877 257.126 129.636 258.592 131.156C260.06 132.676 261.794 133.87 263.803 134.735C265.81 135.606 267.954 136.036 270.235 136.036C274.686 136.036 278.515 134.466 281.716 131.317C284.92 128.173 286.629 124.214 286.845 119.438V92.4246Z" fill="#080A0A"/>
<path d="M387.323 77.6154C383.738 77.6154 380.344 78.2422 377.145 79.4863C373.941 80.7371 371.064 82.4185 368.514 84.5307C365.961 86.6483 363.842 89.1685 362.163 92.1007C360.477 95.0303 359.313 98.1786 358.658 101.538H416.146C415.495 98.1786 414.298 95.0303 412.564 92.1007C410.823 89.1685 408.679 86.6483 406.129 84.5307C403.579 82.4185 400.699 80.7371 397.498 79.4863C394.298 78.2422 390.905 77.6154 387.323 77.6154ZM358.497 111.629C359.04 115.1 360.179 118.33 361.917 121.311C363.654 124.294 365.798 126.873 368.348 129.04C370.898 131.211 373.806 132.919 377.063 134.166C380.318 135.413 383.738 136.037 387.323 136.037C391.336 136.037 395.084 135.305 398.557 133.843C402.031 132.376 405.124 130.34 407.839 127.739C408.817 126.761 410.01 126.273 411.425 126.273C412.834 126.273 414.028 126.761 415.006 127.739C415.984 128.716 416.469 129.909 416.469 131.318C416.469 132.731 415.984 133.923 415.006 134.897C411.425 138.916 407.376 141.763 402.874 143.441C398.368 145.127 393.185 145.966 387.323 145.966C381.892 145.966 376.818 144.988 372.095 143.037C367.374 141.081 363.219 138.373 359.636 134.897C356.055 131.43 353.233 127.308 351.168 122.531C349.108 117.759 348.075 112.552 348.075 106.906C348.075 101.484 349.077 96.4118 351.087 91.694C353.098 86.9749 355.863 82.8532 359.395 79.3236C362.917 75.7993 367.101 72.9777 371.934 70.8615C376.763 68.748 382 67.5825 387.646 67.3625C392.857 67.3625 397.767 68.3986 402.386 70.4575C406.999 72.5203 411.096 75.2832 414.678 78.7542C418.263 82.2292 421.114 86.2976 423.229 90.962C425.346 95.6264 426.512 100.619 426.729 105.933C426.949 107.777 426.486 109.185 425.346 110.162C424.207 111.14 422.986 111.629 421.683 111.629H358.497Z" fill="#080A0A"/>
<path d="M444.317 106.907C444.317 110.924 445.077 114.693 446.598 118.217C448.119 121.747 450.206 124.838 452.867 127.493C455.529 130.156 458.62 132.242 462.149 133.759C465.677 135.279 469.45 136.036 473.467 136.036C477.483 136.036 481.285 135.279 484.866 133.759C488.448 132.242 491.568 130.156 494.232 127.493C496.89 124.838 498.977 121.747 500.499 118.217C502.02 114.693 502.779 110.924 502.779 106.907C502.779 102.897 502.02 99.0981 500.499 95.5191C498.977 91.9361 496.89 88.8185 494.232 86.1596C491.568 83.5034 488.448 81.4138 484.866 79.8937C481.285 78.3776 477.483 77.6162 473.467 77.6162C469.558 77.6162 465.869 78.3469 462.395 79.8137C458.917 81.2792 455.882 83.3113 453.275 85.9169C450.668 88.5185 448.554 91.6121 446.925 95.1924C445.295 98.7714 444.425 102.677 444.317 106.907ZM473.795 67.3632C479.006 67.3632 483.974 68.422 488.695 70.5382C493.416 72.6544 497.568 75.5026 501.154 79.0816C504.735 82.6606 507.585 86.841 509.703 91.6121C511.818 96.3845 512.876 101.484 512.876 106.907C512.876 112.226 511.845 117.24 509.784 121.963C507.72 126.681 504.923 130.829 501.397 134.412C497.869 137.991 493.713 140.813 488.938 142.871C484.158 144.934 479.006 145.966 473.467 145.966C468.037 145.966 462.965 144.988 458.243 143.037C453.518 141.082 449.367 138.372 445.785 134.897C442.202 131.43 439.376 127.307 437.316 122.532C435.252 117.76 434.223 112.553 434.223 106.907V46.6961C434.223 45.2879 434.712 44.0945 435.687 43.1171C436.665 42.1396 437.859 41.6503 439.272 41.6503C440.681 41.6503 441.875 42.1396 442.853 43.1171C443.828 44.0945 444.317 45.2879 444.317 46.6961V82.1726C447.903 78.2656 452.189 74.8786 457.185 72.001C462.175 69.1301 467.713 67.5819 473.795 67.3632Z" fill="#080A0A"/>
</svg>
